<svg xmlns="http://www.w3.org/2000/svg" width="1024" height="1024" viewBox="0 0 256 256" role="img" aria-label="SporeBase"><title>SporeBase — Mycosoft</title><path data-part="cassette-housing" d="M 73.00000 39.50000 L 181.00000 39.50000 C 202.00000 39.50000 214.00000 50.50000 214.00000 71.50000 L 214.00000 112.50000 C 214.00000 125.50000 194.00000 125.50000 194.00000 112.50000 L 194.00000 77.50000 C 194.00000 65.50000 189.00000 60.50000 178.00000 60.50000 L 77.00000 60.50000 L 58.00000 80.50000 L 58.00000 181.50000 C 58.00000 192.50000 63.00000 197.50000 74.00000 197.50000 L 178.00000 197.50000 C 189.00000 197.50000 194.00000 192.50000 194.00000 181.50000 L 194.00000 164.50000 C 194.00000 151.50000 214.00000 151.50000 214.00000 164.50000 L 214.00000 184.50000 C 214.00000 205.50000 202.00000 216.50000 181.00000 216.50000 L 71.00000 216.50000 C 49.00000 216.50000 37.00000 204.50000 37.00000 182.50000 L 37.00000 77.50000 C 37.00000 69.50000 40.00000 64.50000 47.00000 57.50000 L 58.00000 46.50000 C 62.00000 42.50000 66.00000 39.50000 73.00000 39.50000 Z" fill="#ffffff"/><path data-part="supply-spool" d="M 77.00000 145.50000 C 77.00000 115.50000 96.00000 88.50000 119.00000 87.50000 C 131.00000 86.50000 137.00000 98.50000 129.00000 111.50000 C 117.00000 130.50000 96.00000 143.50000 87.00000 151.50000 C 81.00000 156.50000 76.00000 153.50000 77.00000 145.50000 Z" fill="#ffffff"/><path data-part="takeup-spool" d="M 114.00000 169.50000 C 108.00000 157.50000 122.00000 143.50000 137.00000 131.50000 C 148.00000 122.50000 161.00000 123.50000 167.00000 133.50000 C 175.00000 147.50000 164.00000 169.50000 149.00000 177.50000 C 136.00000 184.50000 120.00000 181.50000 114.00000 169.50000 Z" fill="#ffffff"/><path data-part="air-inlet" d="M 219.00000 140.50000 C 219.00000 146.02285 213.17970 150.50000 206.00000 150.50000 C 198.82030 150.50000 193.00000 146.02285 193.00000 140.50000 C 193.00000 134.97715 198.82030 130.50000 206.00000 130.50000 C 213.17970 130.50000 219.00000 134.97715 219.00000 140.50000 Z" fill="#ffffff"/></svg>