<svg xmlns="http://www.w3.org/2000/svg" width="1024" height="1024" viewBox="0 0 256 256" role="img" aria-label="FormSpace glass icon">
<title>FormSpace — colored symbol on clear glass block</title>
<desc>Editable vector material study. The clear-block layer remains neutral; only the colored-symbol layer changes color.</desc>
<defs>
<linearGradient id="block-face" x1="0" y1="0" x2="1" y2="1"><stop stop-color="#f3f4f6" stop-opacity="1" /><stop offset=".34" stop-color="#f3f4f6" stop-opacity="1" /><stop offset=".8" stop-color="#f3f4f6" stop-opacity="1" /><stop offset="1" stop-color="#f3f4f6" stop-opacity="1" /></linearGradient>
<linearGradient id="block-rim" x1="0" y1="0" x2="1" y2="1"><stop stop-color="#ffffff" stop-opacity=".98" /><stop offset=".18" stop-color="#a7a7a7" stop-opacity=".52" /><stop offset=".45" stop-color="#ffffff" stop-opacity=".3" /><stop offset=".72" stop-color="#404040" stop-opacity=".55" /><stop offset="1" stop-color="#ffffff" stop-opacity=".98" /></linearGradient>
<linearGradient id="symbol-face" x1="0" y1="0" x2="1" y2="1"><stop data-shade=".65" stop-color="#ffffff" stop-opacity=".9" /><stop offset=".25" data-shade="0" stop-color="#ffffff" stop-opacity=".78" /><stop offset=".52" data-shade=".35" stop-color="#ffffff" stop-opacity=".68" /><stop offset=".74" data-shade="-.35" stop-color="#a6a6a6" stop-opacity=".86" /><stop offset="1" data-shade=".6" stop-color="#ffffff" stop-opacity=".92" /></linearGradient>
<linearGradient id="symbol-edge" x1="0" y1="0" x2="1" y2="1"><stop stop-color="#fff" /><stop offset=".35" stop-color="#ffffff" stop-opacity=".25" /><stop offset=".65" stop-color="#000000" stop-opacity=".35" /><stop offset="1" stop-color="#ffffff" stop-opacity=".85" /></linearGradient>
<linearGradient id="part-manifold" x1="0" y1="0" x2="1" y2="1" data-part="manifold"><stop data-shade=".65" stop-color="#25272c" stop-opacity="1" /><stop offset=".25" data-shade="0" stop-color="#111318" stop-opacity="1" /><stop offset=".52" data-shade=".35" stop-color="#1c1e23" stop-opacity="1" /><stop offset=".74" data-shade="-.35" stop-color="#101217" stop-opacity="1" /><stop offset="1" data-shade=".6" stop-color="#24252a" stop-opacity="1" /></linearGradient>
</defs>
<g id="clear-block"><rect x="19" y="21" width="218" height="218" rx="44" fill="#000000" fill-opacity=".04" stroke="#000000" stroke-opacity=".22" stroke-width="2" /><rect x="18" y="18" width="218" height="218" rx="43" fill="url(#block-face)" stroke="url(#block-rim)" stroke-width="2.2" /><rect x="21" y="21" width="212" height="212" rx="40" fill="none" stroke="#ffffff" stroke-opacity=".3" stroke-width=".8" /></g>
<g id="colored-symbol" transform="translate(29.44 29.44) scale(.77)"><g transform="translate(1.5 2.2)" fill="#000000" fill-opacity=".22"><path d="M 47 79 L 111 41 C 123 33 133 33 146 40 L 203 73 C 217 82 222 89 222 108 L 222 154 C 222 175 217 187 201 197 L 150 226 C 135 235 123 235 109 227 L 52 194 C 38 186 34 179 34 162 L 34 119 C 34 107 38 104 45 108 L 108 143 C 122 151 123 155 123 172 L 123 201 C 123 216 127 226 135 222 C 146 217 150 201 150 184 L 150 137 C 150 123 152 117 164 109 L 192 92 C 205 84 207 78 192 69 C 177 60 164 60 148 68 L 98 100 C 86 107 75 110 63 106 C 51 102 39 95 43 90 C 44 86 47 83 47 79 Z" /></g><g fill="url(#symbol-face)" stroke="#787b83" stroke-width=".65" stroke-linejoin="round" class="face-material" stroke-opacity=".48"><path d="M 47 79 L 111 41 C 123 33 133 33 146 40 L 203 73 C 217 82 222 89 222 108 L 222 154 C 222 175 217 187 201 197 L 150 226 C 135 235 123 235 109 227 L 52 194 C 38 186 34 179 34 162 L 34 119 C 34 107 38 104 45 108 L 108 143 C 122 151 123 155 123 172 L 123 201 C 123 216 127 226 135 222 C 146 217 150 201 150 184 L 150 137 C 150 123 152 117 164 109 L 192 92 C 205 84 207 78 192 69 C 177 60 164 60 148 68 L 98 100 C 86 107 75 110 63 106 C 51 102 39 95 43 90 C 44 86 47 83 47 79 Z" fill="url(#part-manifold)" data-part="manifold" /></g></g>
</svg>