<svg xmlns="http://www.w3.org/2000/svg" width="1024" height="1024" viewBox="0 0 256 256" role="img" aria-label="MycoNode glass icon">
<title>MycoNode — colored symbol on clear glass block</title>
<desc>Editable vector material study. The clear-block layer remains neutral; only the colored-symbol layer changes color.</desc>
<defs>
<linearGradient id="block-face" x1="0" y1="0" x2="1" y2="1"><stop stop-color="#080b10" stop-opacity="1" /><stop offset=".34" stop-color="#080b10" stop-opacity="1" /><stop offset=".8" stop-color="#080b10" stop-opacity="1" /><stop offset="1" stop-color="#080b10" stop-opacity="1" /></linearGradient>
<linearGradient id="block-rim" x1="0" y1="0" x2="1" y2="1"><stop stop-color="#737d88" stop-opacity=".98" /><stop offset=".18" stop-color="#737d88" stop-opacity=".52" /><stop offset=".45" stop-color="#737d88" stop-opacity=".3" /><stop offset=".72" stop-color="#737d88" stop-opacity=".55" /><stop offset="1" stop-color="#737d88" stop-opacity=".98" /></linearGradient>
<linearGradient id="symbol-face" x1="0" y1="0" x2="1" y2="1"><stop data-shade=".65" stop-color="#ffffff" stop-opacity=".9" /><stop offset=".25" data-shade="0" stop-color="#ffffff" stop-opacity=".78" /><stop offset=".52" data-shade=".35" stop-color="#ffffff" stop-opacity=".68" /><stop offset=".74" data-shade="-.35" stop-color="#a6a6a6" stop-opacity=".86" /><stop offset="1" data-shade=".6" stop-color="#ffffff" stop-opacity=".92" /></linearGradient>
<linearGradient id="symbol-edge" x1="0" y1="0" x2="1" y2="1"><stop stop-color="#fff" /><stop offset=".35" stop-color="#ffffff" stop-opacity=".25" /><stop offset=".65" stop-color="#000000" stop-opacity=".35" /><stop offset="1" stop-color="#ffffff" stop-opacity=".85" /></linearGradient>
</defs>
<g id="clear-block"><rect x="19" y="21" width="218" height="218" rx="44" fill="#000000" fill-opacity=".04" stroke="#000000" stroke-opacity=".22" stroke-width="2" /><rect x="18" y="18" width="218" height="218" rx="43" fill="url(#block-face)" stroke="url(#block-rim)" stroke-width="2.2" /><rect x="21" y="21" width="212" height="212" rx="40" fill="none" stroke="#ffffff" stroke-opacity=".3" stroke-width=".8" /></g>
<g id="colored-symbol" transform="translate(29.44 29.44) scale(.77)"><g transform="translate(1.5 2.2)" fill="#000000" fill-opacity=".22"><path d="M 90.00000 98.93292 C 78.00000 90.93292 78.00000 65.93292 88.00000 48.93292 C 101.00000 27.93292 127.00000 21.93292 146.00000 33.93292 C 168.00000 46.93292 178.00000 75.93292 166.00000 91.93292 C 158.00000 103.93292 143.00000 105.93292 129.00000 104.93292 C 112.00000 105.93292 100.00000 104.93292 90.00000 98.93292 Z" /><path d="M 108.00000 118.93292 C 114.00000 111.93292 141.00000 111.93292 147.00000 118.93292 L 140.00000 179.93292 C 138.00000 194.93292 134.00000 210.93292 129.00000 222.93292 C 126.00000 229.93292 122.00000 229.93292 119.00000 222.93292 C 114.00000 210.93292 110.00000 194.93292 108.00000 179.93292 Z" /><path d="M 47.00000 170.93292 C 63.00000 168.93292 77.00000 176.93292 91.00000 188.93292 C 96.00000 193.93292 91.00000 203.93292 85.00000 200.93292 C 70.00000 190.93292 59.00000 185.93292 48.00000 186.93292 C 37.00000 188.93292 36.00000 171.93292 47.00000 170.93292 Z" /><path d="M 209.00000 170.93292 C 193.00000 168.93292 179.00000 176.93292 165.00000 188.93292 C 160.00000 193.93292 165.00000 203.93292 171.00000 200.93292 C 186.00000 190.93292 197.00000 185.93292 208.00000 186.93292 C 219.00000 188.93292 220.00000 171.93292 209.00000 170.93292 Z" /></g><g fill="url(#symbol-face)" stroke="url(#symbol-edge)" stroke-width="1.35" stroke-linejoin="round"><path d="M 90.00000 98.93292 C 78.00000 90.93292 78.00000 65.93292 88.00000 48.93292 C 101.00000 27.93292 127.00000 21.93292 146.00000 33.93292 C 168.00000 46.93292 178.00000 75.93292 166.00000 91.93292 C 158.00000 103.93292 143.00000 105.93292 129.00000 104.93292 C 112.00000 105.93292 100.00000 104.93292 90.00000 98.93292 Z" /><path d="M 108.00000 118.93292 C 114.00000 111.93292 141.00000 111.93292 147.00000 118.93292 L 140.00000 179.93292 C 138.00000 194.93292 134.00000 210.93292 129.00000 222.93292 C 126.00000 229.93292 122.00000 229.93292 119.00000 222.93292 C 114.00000 210.93292 110.00000 194.93292 108.00000 179.93292 Z" /><path d="M 47.00000 170.93292 C 63.00000 168.93292 77.00000 176.93292 91.00000 188.93292 C 96.00000 193.93292 91.00000 203.93292 85.00000 200.93292 C 70.00000 190.93292 59.00000 185.93292 48.00000 186.93292 C 37.00000 188.93292 36.00000 171.93292 47.00000 170.93292 Z" /><path d="M 209.00000 170.93292 C 193.00000 168.93292 179.00000 176.93292 165.00000 188.93292 C 160.00000 193.93292 165.00000 203.93292 171.00000 200.93292 C 186.00000 190.93292 197.00000 185.93292 208.00000 186.93292 C 219.00000 188.93292 220.00000 171.93292 209.00000 170.93292 Z" /></g></g>
</svg>